<svg id="Layer_1" data-name="Layer 1" xmlns="http://www.w3.org/2000/svg" viewBox="0 0 2000 797.33"><defs><style>.cls-1{fill:#FFF;}</style></defs><path class="cls-1" d="M566.2,369c-4.37-5.35-6.8-7.78-6.8-9.72s1.46-4.86,2.91-8.26L576.89,319c4.37-9.71,8.26-18,8.26-28.17,0-7.29-2.92-14.57-10.21-20.89l-20.88-18c-1.95-1.46-1.95-3.89-1-5.83l7.77-17.49a2.57,2.57,0,0,0-1-3.4c-23.81-16-51-25.74-76.75-33-25.75-6.8-60.24-16.51-77.24-29.63-17,13.12-51.49,22.34-77.23,29.63s-52.95,17-76.75,33a2.55,2.55,0,0,0-1,3.4l7.77,17.49c1,1.94,1,4.37-1,5.83l-20.89,18c-7.29,6.32-10.2,13.6-10.2,20.89,0,10.2,3.88,18.46,8.26,28.17l14.57,32.06c1.46,3.4,2.91,6.32,2.91,8.26s-2.43,4.37-6.8,9.72c-21.86,27.2-30.6,49.54-30.6,79.17,0,41.29,20.4,72.87,43.72,96.67,23.8,24.29,56.83,40.32,86.95,54.89,19.91,9.71,40.8,19.43,60.23,35,19.43-15.54,40.32-25.26,60.24-35,30.11-14.57,63.63-30.6,87-54.89,23.31-23.8,43.71-55.38,43.71-96.67C596.8,418.58,588.06,396.24,566.2,369Zm-22.83,167.1c-21.37,21.85-52.95,37.4-83.06,52-19.92,9.72-39.35,19.43-54.41,31.09-15.06-11.66-34.49-21.37-54.4-31.09-30.12-14.57-61.69-30.12-83.07-52-27.2-27.69-40.31-55.87-40.31-87.93,0-27.2,10.68-50,35-80.63,1.94-2.43,3.89-4.86,3.89-6.8s-2-5.83-2.92-7.77l-17-36.92c-3.89-8.26-7.77-16-7.77-24.29,0-6.8,4.37-11.66,10.2-16.52l24.29-21.85a3,3,0,0,0,.48-3.4l-7.77-16c-1-1.95-1-3.4.49-4.38,23.8-16,43.71-20.88,72.37-28.66,27.21-7.28,51.49-13.6,66.55-23.31,15.06,9.71,39.35,16,66.55,23.31,28.66,7.78,48.09,13.61,72.38,28.66,1.45,1,1.45,2.43.48,4.38l-7.77,16a3,3,0,0,0,.49,3.4l24.28,21.85c5.83,4.86,10.21,9.72,10.21,16.52,0,8.26-3.89,16-7.78,24.29l-17,36.92c-1,1.94-2.91,5.82-2.91,7.77s1.94,4.37,3.88,6.8c26.23,29.14,35,53.43,35,80.63C583.69,480.27,570.57,508.45,543.37,536.14ZM556,452.59a7,7,0,0,0-6.32,3.4c-3.88-8.75-7.77-17-24.77-32.55a22.37,22.37,0,0,0,6.8,1c5.35,0,11.17-1.46,14.57-4.86a7.31,7.31,0,0,0,7.29,5.35c5.34,0,7.29-3.4,7.29-7.29,0-1.46-.49-2.91-2-2.91-2.91,0-.48,5.83-5.34,5.83-1.94,0-3.4-1.46-3.4-3.89s1.46-5.34,1.46-8.74c0-7.78-4.86-13.12-10.69-14.58-3.4-1-5.34-3.4-5.34-6.31,0-3.89,2.91-4.37,4.86-4.37s3.4.48,3.4-1-1.46-2.43-4.38-2.43c-3.4,0-8.25,2.43-8.25,7.77a7.69,7.69,0,0,0,2.43,5.83c-4.38,1-8.26,4.37-8.26,9.71,0,3.4,1,6.8,3.4,6.8,2.91,0,.48-2.43.48-6.31,0-4.37,3.89-6.32,7.78-6.32,5.34,0,10.2,4.86,10.2,11.18,0,7.28-5.83,12.14-15.06,12.14-5.35,0-13.12-1-19.43-8.26-10.2-11.17-16-20.89-16-38.37,0-22.35,16-41.78,39.34-48.09a12.09,12.09,0,0,0,8.75-11.66c0-4.86-2.92-8.74-7.77-8.74-1.95,0-3.4.48-3.4,1.94s1.45,1.46,2.42,1.46c1.95,0,4.38,1.94,4.38,5.34,0,4.86-3.89,7.77-8.26,7.77-5.35,0-8.75-3.88-8.75-9.23,0-10.2,12.15-17,21.38-21.37-8.26-3.89-11.17-5.34-17.49-10.2a6.24,6.24,0,0,1-1.94-4.86c0-2.43,1.45-4.37,3.4-4.37a2.3,2.3,0,0,1,2.43,2.43c0,1.45-1,1.45-1,2.43a1.29,1.29,0,0,0,1.46,1.45c1,0,3.4-1,3.4-4.85,0-2.92-1.94-5.83-6.31-5.83s-7.77,3.4-7.77,8.25a102.65,102.65,0,0,1-10.69-10.2l-15.55-17c-4.37-4.85-1.94-14.08,4.38-14.08a4.46,4.46,0,0,1,4.85,4.37c0,4.37-4.37,2.43-4.37,4.86a1.78,1.78,0,0,0,2,1.94c3.4,0,6.8-2.43,6.8-7.29,0-4.37-3.89-8.26-9.23-8.26-6.32,0-10.69,4.86-10.69,11.66l-4.86-5.34c-21.37-23.32-38.86-33.52-55.86-33.52-6.31,0-12.14,1.94-15.54,4.37a76.23,76.23,0,0,1-6.32-8.74,77.27,77.27,0,0,1-6.31,8.74c-3.4-2.43-9.23-4.37-15.55-4.37-17,0-34.49,10.2-55.86,33.52l-4.86,5.34c0-6.8-4.37-11.66-10.68-11.66-5.35,0-9.23,3.89-9.23,8.26,0,4.86,3.4,7.29,6.8,7.29a1.77,1.77,0,0,0,1.94-1.94c0-2.43-4.37-.49-4.37-4.86a4.47,4.47,0,0,1,4.86-4.37c6.31,0,8.74,9.23,4.37,14.08l-15.55,17a102.59,102.59,0,0,1-10.68,10.2c0-4.85-3.4-8.25-7.77-8.25s-6.32,2.91-6.32,5.83c0,3.88,2.43,4.85,3.4,4.85a1.29,1.29,0,0,0,1.46-1.45c0-1-1-1-1-2.43A2.29,2.29,0,0,1,283,271.4c1.94,0,3.4,1.94,3.4,4.37a6.25,6.25,0,0,1-2,4.86c-5.83,5.83-9.23,6.31-17.48,10.2,9.23,4.37,21.37,11.17,21.37,21.37,0,5.35-3.4,9.23-8.74,9.23-4.38,0-8.26-2.91-8.26-7.77,0-3.4,2.43-5.34,4.37-5.34,1,0,2.43,0,2.43-1.46s-1.46-1.94-3.4-1.94c-4.86,0-7.77,3.88-7.77,8.74a12.09,12.09,0,0,0,8.74,11.66c23.32,6.8,39.35,25.74,39.35,48.09,0,17.48-6.32,26.71-16,38.37C292.72,419.07,285,420,279.61,420c-9.23,0-15.06-4.86-15.06-12.14,0-6.32,4.85-11.18,10.2-11.18,3.88,0,7.77,1.95,7.77,6.32,0,3.88-2.43,6.31.49,6.31,2.42,0,3.4-3.4,3.4-6.8,0-5.34-3.89-8.74-8.26-9.71a7.72,7.72,0,0,0,2.43-5.83c0-5.34-4.86-7.77-8.26-7.77-2.92,0-4.37,1-4.37,2.43s1.45,1,3.4,1,4.86.48,4.86,4.37c0,2.91-1.95,5.34-5.35,6.31-5.83,1.46-10.68,6.8-10.68,14.58,0,3.4,1.45,6.31,1.45,8.74s-1.45,3.89-3.4,3.89c-4.86,0-2.43-5.83-5.34-5.83-1.46,0-1.94,1.45-1.94,2.91,0,3.89,1.94,7.29,7.28,7.29a7.31,7.31,0,0,0,7.29-5.35c3.4,3.4,9.23,4.86,14.57,4.86a22.37,22.37,0,0,0,6.8-1C269.89,439,266,447.24,262.12,456a7,7,0,0,0-6.32-3.4c-4.85,0-7.28,2.91-7.28,7.28,0,1,0,3.89,2.43,3.89,1.94,0,1-1.95,1-3.4,0-1.95,1.45-3.4,3.88-3.4,3.89,0,4.86,3.4,3.89,8.74a41.41,41.41,0,0,0-.49,7.77c0,22.83,17,39.35,39.35,39.35a66.55,66.55,0,0,0,9.71-1l6.81,10.2a11.38,11.38,0,0,0-8.26,10.69A11,11,0,0,0,318,543.91c3.89,0,6.8-1.95,6.8-3.89a1.77,1.77,0,0,0-1.94-1.94c-1.46,0-1.46,1.46-4.86,1.46a6.64,6.64,0,0,1-6.8-6.8c0-3.89,3.4-6.81,8.26-6.81,9.23,0,13.6,10.69,19.91,21.38L345.67,558c10.2,17.49,26.71,27.69,40.32,27.69a23.85,23.85,0,0,0,5.82-.48c5.83,5.83,11.66,16.51,14.09,21.37,2.43-4.86,8.26-15.54,14.09-21.37a23.89,23.89,0,0,0,5.83.48c13.6,0,30.11-10.2,40.32-27.69l6.31-10.68c6.31-10.69,10.69-21.38,19.92-21.38,4.85,0,8.25,2.92,8.25,6.81a6.64,6.64,0,0,1-6.8,6.8c-3.4,0-3.4-1.46-4.85-1.46a1.78,1.78,0,0,0-2,1.94c0,1.94,2.92,3.89,6.8,3.89A11,11,0,0,0,505,532.74a11.38,11.38,0,0,0-8.26-10.69l6.8-10.2a66.55,66.55,0,0,0,9.71,1c22.35,0,39.35-16.52,39.35-39.35a41.41,41.41,0,0,0-.49-7.77c-1-5.34,0-8.74,3.89-8.74,2.43,0,3.89,1.45,3.89,3.4,0,1.45-1,3.4,1,3.4,2.43,0,2.43-2.92,2.43-3.89C563.29,455.5,560.86,452.59,556,452.59ZM410.81,234.41a12.11,12.11,0,0,1-9.82,0,15.49,15.49,0,0,0,4.91-6.57A15.57,15.57,0,0,0,410.81,234.41ZM405.9,598.8a75.63,75.63,0,0,0-10.2-15.06,19.13,19.13,0,0,0,10.2-9.23,19.13,19.13,0,0,0,10.2,9.23A76.07,76.07,0,0,0,405.9,598.8Zm107.35-90.35c-17,0-28.17-9.72-28.17-24.29,0-12.14,8.26-21.86,18-21.86,3.89,0,7.29,1.46,7.29,5.34,0,2.43-1,4.38,1.46,4.38,1.45,0,2.91-1.46,2.91-5.35,0-4.86-4.37-8.74-10.69-8.74h-1.45a9.93,9.93,0,0,0,1-4.37,6.63,6.63,0,0,0-6.8-6.8c-3.4,0-6.8,1.94-6.8,4.37a1.29,1.29,0,0,0,1.45,1.46c1.46,0,1.95-1.46,4.38-1.46a3.07,3.07,0,0,1,3.4,3.4c0,3.4-2.92,4.86-5.35,6.31a26.56,26.56,0,0,0-13.11,23.32c0,13.6,7.77,22.34,18.94,26.23l-7.28,11.17c-9.72,0-14.58,7.29-23.32,22.83a8.52,8.52,0,0,0-8.74-6.8c-5.35,0-8.75,3.89-8.75,9.23a2.22,2.22,0,0,0,1.95,2.43,2.29,2.29,0,0,0,2.42-2.43c0-2.43,1.46-4.86,4.38-4.86,3.4,0,4.85,2.43,4.85,5.35,0,3.4-.48,5.34-2.91,9.23-10.2,16.51-24.29,24.77-36.43,24.77-10.69,0-17-6.31-17-12.63,0-5.83,3.4-10.69,9.23-10.69,3.88,0,6.31,2.43,6.31,5.83,0,2.92-2.43,2.92-2.43,4.38,0,1,1,1.45,1.94,1.45,2.92,0,4.86-3.4,4.86-6.8,0-5.34-4.37-9.23-10.68-9.23-5.83,0-10.69,3.89-12.15,7.77-1.46-3.88-6.31-7.77-12.14-7.77-6.32,0-10.69,3.89-10.69,9.23,0,3.4,1.94,6.8,4.86,6.8,1,0,1.94-.48,1.94-1.45,0-1.46-2.43-1.46-2.43-4.38,0-3.4,2.43-5.83,6.32-5.83,5.83,0,9.23,4.86,9.23,10.69,0,6.32-6.32,12.63-17,12.63-12.15,0-26.24-8.26-36.44-24.77-2.42-3.89-2.91-5.83-2.91-9.23,0-2.92,1.46-5.35,4.86-5.35,2.91,0,4.37,2.43,4.37,4.86a2.29,2.29,0,0,0,2.43,2.43,2.22,2.22,0,0,0,1.94-2.43c0-5.34-3.4-9.23-8.74-9.23a8.53,8.53,0,0,0-8.75,6.8c-8.74-15.54-13.6-22.83-23.31-22.83l-7.29-11.17c11.17-3.89,19-12.63,19-26.23A26.57,26.57,0,0,0,318,460.84c-2.43-1.45-5.34-2.91-5.34-6.31a3.06,3.06,0,0,1,3.4-3.4c2.43,0,2.91,1.46,4.37,1.46a1.29,1.29,0,0,0,1.46-1.46c0-2.43-3.4-4.37-6.8-4.37a6.64,6.64,0,0,0-6.81,6.8,9.85,9.85,0,0,0,1,4.37h-1.46c-6.32,0-10.69,3.88-10.69,8.74,0,3.89,1.46,5.35,2.92,5.35,2.43,0,1.45-1.95,1.45-4.38,0-3.88,3.4-5.34,7.29-5.34,9.72,0,18,9.72,18,21.86,0,14.57-11.17,24.29-28.17,24.29-19.92,0-35-14.58-35-35,0-19.91,11.65-33.51,24.77-45.66l11.17-10.68c14.09-13.12,19.92-26.72,19.92-43.72,0-18.46-11.18-38.86-34.49-49.06,4.86-1.46,7.77-6.32,7.77-12.15,0-3.88-1.46-6.31-1.46-9.23,0-5.83,3.4-9.23,8.26-9.23a7.07,7.07,0,0,1,7.29,6.8,5.1,5.1,0,0,1-5.35,5.35c-1.45,0-2.42,0-2.42,1.45s1.45,2,3.4,2c5.82,0,8.74-4.86,8.74-7.29a7,7,0,0,0,3.4,1,5.61,5.61,0,0,0,5.83-5.83c0-1-.49-2.42-1.94-2.42-1,0-1.46,1-1.46,1.94a2.29,2.29,0,0,1-2.43,2.43c-1.94,0-3.4-1.46-4.37-3.4a12.47,12.47,0,0,0-10.69-6.32,12.09,12.09,0,0,0-12.14,10.2,56.24,56.24,0,0,0-11.17-8.74c3.88-2.43,7.28-4.37,11.17-7.29a123.54,123.54,0,0,0,17-15.54l26.72-29.15c23.31-25.74,38.37-32.06,52.94-32.06,12.63,0,18.95,6.32,18.95,13.6,0,5.35-2.3,9.31-5.94,11.27a16.29,16.29,0,0,1-4.26-8.35c-.49-2.43-1-2.43-1.46-2.43-1,0-1,1-1,1.94a18.75,18.75,0,0,0,2.61,10.1,12.56,12.56,0,0,1-1.64.1c-4.86,0-7.77-2.42-7.77-5.34a3.15,3.15,0,0,1,1-2.43c1-1,.48-1.46,0-1.46-1.94,0-3.89,2.43-3.89,5.35,0,3.4,2.92,8.26,11.17,8.26a16.38,16.38,0,0,0,4.6-.68,16.09,16.09,0,0,0,19,0,16.31,16.31,0,0,0,4.59.68c8.26,0,11.17-4.86,11.17-8.26,0-2.92-1.94-5.35-3.89-5.35-.48,0-1,.49,0,1.46a3.13,3.13,0,0,1,1,2.43c0,2.92-2.92,5.34-7.78,5.34a12.67,12.67,0,0,1-1.64-.1,18.75,18.75,0,0,0,2.62-10.1c0-1,0-1.94-1-1.94-.48,0-1,0-1.45,2.43a16.38,16.38,0,0,1-4.27,8.35c-3.64-2-5.93-5.92-5.93-11.27,0-7.28,6.31-13.6,18.94-13.6,14.57,0,29.63,6.32,52.95,32.06L507.42,268a101,101,0,0,0,17,15.54c3.88,2.92,7.28,4.86,11.17,7.29a55.66,55.66,0,0,0-11.17,8.74,12.1,12.1,0,0,0-12.15-10.2,12.44,12.44,0,0,0-10.68,6.32c-1,1.94-2.43,3.4-4.38,3.4a2.3,2.3,0,0,1-2.43-2.43c0-1-.48-1.94-1.45-1.94-1.46,0-1.95,1.45-1.95,2.42a5.61,5.61,0,0,0,5.83,5.83,7,7,0,0,0,3.4-1c0,2.43,2.92,7.29,8.75,7.29,1.94,0,3.4-.49,3.4-2s-1-1.45-2.43-1.45c-3.4,0-5.34-1.95-5.34-5.35a7.06,7.06,0,0,1,7.28-6.8c4.86,0,8.26,3.4,8.26,9.23,0,2.92-1.46,5.35-1.46,9.23,0,5.83,2.92,10.69,7.77,12.15-23.31,10.2-34.48,30.6-34.48,49.06,0,17,5.83,30.6,19.91,43.72l11.17,10.68c13.12,12.15,24.78,25.75,24.78,45.66C548.23,493.87,533.17,508.45,513.25,508.45Zm-82.57-137h-.74c7.3-9,13.11-23.24,14.8-37.73a70.75,70.75,0,0,1,13.62,10.53c1.95,1.95,2.92,2.92,4.38,2.92,2.91,0,4.37-2.43,2.91-4.86a32.51,32.51,0,0,1-5.34-18.46,28.8,28.8,0,0,1,2.43-10.69c1-2.42,0-4.85-2.92-4.85-2.43,0-2.91,1.94-3.89,3.4A12.79,12.79,0,0,1,445,318c-2.1-26.25-15.52-39.11-29.36-42.65,5-11.83,17.28-19.1,33.53-22.42,2.43-.49,4.38-1.46,4.38-3.4,0-2.43-1.95-3.4-4.38-3.4-5.34,0-13.11,2.91-19.43,4.86-9.71,2.91-18,4.85-25.26,4.85-15.54,0-29.14-6.8-33.51-6.8a3.32,3.32,0,0,0-3.4,3.4c0,1.46,1,2.92,3.88,3.89,12.92,4.19,21.32,10.88,25,19.91-7.67,2.81-14,8.54-18.38,16-5.17-10.42-11.72-15-21.21-15-9.23,0-16.52,6.8-16.52,15.06,0,5.83,3.89,10.2,8.26,10.2,1.95,0,2.92-1,2.92-2.43,0-1.94-1-2.43-1-5.34s2.42-5.35,6.31-5.35c5.83,0,11.17,5.83,11.17,21.86v4c-15.28,6.77-25.26,18.69-25.26,34.87,0,16.62,11,29,25.26,33.08v41c-10.89-8.77-17-20.1-20.88-28.4-1-1.94-1.95-4.37-4.38-4.37-2.91,0-3.88,2.91-2.43,6.32a37.72,37.72,0,0,1,2.43,13.6,20.85,20.85,0,0,1-5.83,15.05c-1.94,1.95-3.4,3.4-3.4,4.86a2.8,2.8,0,0,0,2.92,2.92c2.91,0,6.31-3.4,12.63-3.4,3.88,0,8.74,1.94,16.51,6.8.82.48,1.62,1,2.43,1.53v12.55c0,6.8-2.91,11.18-8.74,11.18-3.89,0-6.32-2.92-6.32-6.8,0-2.92,1.95-3.89,1.95-5.35s-1-2.43-2.92-2.43c-2.91,0-7.77,4.38-7.77,11.66,0,6.8,4.86,15.06,15.06,15.06a22,22,0,0,0,16.28-6.75c4.71,7.6,13,14.39,22.3,16.89-2.56,12.84-11.41,23.38-24,23.38-6.31,0-9.71-3.4-9.71-7.77,0-3.4,2.43-5.35,4.37-6.32,2.43-1,4.37-1.46,4.37-4.37,0-1.46-1-3.4-5.83-3.4-8.74,0-16,7.77-16,17,0,10.2,7.29,19.92,22.35,19.92a42.25,42.25,0,0,0,31.07-14.23c8.31,6.71,21,12.28,27.22,12.28,1.94,0,3.88-1,3.88-2.91s-1.94-3.4-3.88-4.37c-11.18-5.83-18.46-14.09-18.46-28.66v-.24c17.34-3.24,33.57-17.3,37.15-41.49,15.79-6.71,24.05-18.27,24.05-34.05C474.39,387,453,371.46,430.68,371.46Zm5.81,63.66a116.23,116.23,0,0,1-23.3,2.37V384.71c6.66,1.52,23.31,17.55,23.31,48.93C436.5,434.14,436.5,434.63,436.49,435.12Zm-53.9-111.19a79,79,0,0,1,16-2v49.5h-16Zm30.6,46.89V322.73a85.45,85.45,0,0,1,17.46,4.32C430.08,347.84,419.46,367.12,413.19,370.82Zm16.66-57.21a84.32,84.32,0,0,0-16.66-4.05V288.35C421,290.89,427.6,298.87,429.85,313.61Zm-31.23-24.4v19.63a92.85,92.85,0,0,0-15.45,1.69C384.93,300.76,390.6,292.66,398.62,289.21Zm-41.29,60.4c0-7.84,3.6-14.62,10.68-19.52V368.4A21.37,21.37,0,0,1,357.33,349.61Zm25.26,35h16v52.27a65.43,65.43,0,0,1-16-4.14Zm.1,62.44a66.35,66.35,0,0,0,15.93,3.18v21.61C390.57,469,383.62,460.91,382.69,447Zm30.5,25.24V450.6a130.5,130.5,0,0,0,21.91-2.19C432,463.14,423.73,470.13,413.19,472.26ZM451,429.05c-1-22.56-9.55-36.23-18-44.47h.1c11.18,0,26.72,9.71,26.72,25.26C459.82,418.42,456.89,424.67,451,429.05Z"/><path class="cls-1" d="M790.16,465.6q3.18,22.53,12.53,33.69,17.09,20.31,58.55,20.31,24.82,0,40.32-5.36Q931,504,931,476.09q0-16.29-14.39-25.22-14.4-8.7-45.67-15.39l-35.61-7.81q-52.49-11.61-72.12-25.22-33.25-22.76-33.25-71.18,0-44.17,32.52-73.41T858,228.63q52.63,0,89.79,27.56t39,80h-66q-1.83-29.67-26.54-42.17-16.47-8.25-40.94-8.26-27.23,0-43.47,10.71t-16.24,29.9q0,17.64,16,26.33,10.29,5.81,43.69,13.61l57.72,13.61q38,8.94,56.89,23.88,29.4,23.2,29.4,67.16,0,45.07-34.84,74.87T863.93,575.6q-64.95,0-102.17-29.34T724.55,465.6Z"/><path class="cls-1" d="M1128.85,419.19q17.76-2.24,25.4-5.58,13.71-5.81,13.71-18.07,0-15-10.51-20.65t-30.88-5.69q-22.85,0-32.34,11.16-6.8,8.26-9,22.32h-61.36q2-31.92,17.93-52.44,25.32-32.13,87-32.13,40.11,0,71.26,15.84t31.15,59.8V505.32q0,11.59.45,28.11.66,12.5,3.79,17a22.73,22.73,0,0,0,9.37,7.36v9.37h-69.17a71.22,71.22,0,0,1-4-13.83q-1.11-6.46-1.78-14.73a131.44,131.44,0,0,1-30.52,24.32q-20.65,11.83-46.69,11.83-33.22,0-54.87-18.85T1016,502.42q0-44.85,34.84-64.94,19.11-10.92,56.2-15.62Zm38.89,29.67a69.76,69.76,0,0,1-12.33,6.14,104.64,104.64,0,0,1-17.08,4.35L1123.86,462q-20.35,3.57-29.23,8.7-15,8.7-15,27,0,16.29,9.18,23.54t22.32,7.25a66.42,66.42,0,0,0,38.4-12q17.57-12,18.24-44Z"/><path class="cls-1" d="M1378.12,235.21q4.91.34,13.38,1V288q-5.36-.66-18-1t-17.4,5.58a20.22,20.22,0,0,0-4.8,13.05v20.53h41.73V371h-41.73V567.12h-63.15V371h-35.7V326.14h34.81V310.52q0-39,13.16-53.78,13.85-21.86,66.72-21.86C1371.2,234.88,1374.84,235,1378.12,235.21Z"/><path class="cls-1" d="M1544.59,318.22c.82.07,2.64.19,5.47.33v65.16q-6-.68-10.71-.89t-7.59-.23q-38.38,0-51.54,25-7.37,14.07-7.37,43.29V567.12h-64V323.91h60.7V366.3q14.71-24.32,25.66-33.24,17.85-15,46.41-14.95C1542.77,318.11,1543.77,318.14,1544.59,318.22Z"/><path class="cls-1" d="M1669.13,419.19q17.76-2.24,25.4-5.58,13.71-5.81,13.71-18.07,0-15-10.52-20.65t-30.87-5.69q-22.85,0-32.34,11.16-6.79,8.26-9,22.32H1564.1q2-31.92,17.92-52.44,25.34-32.13,87-32.13,40.11,0,71.26,15.84t31.15,59.8V505.32q0,11.59.45,28.11.66,12.5,3.79,17a22.67,22.67,0,0,0,9.37,7.36v9.37h-69.17a69.85,69.85,0,0,1-4-13.83q-1.11-6.46-1.78-14.73a131.29,131.29,0,0,1-30.53,24.32q-20.64,11.83-46.68,11.83-33.22,0-54.87-18.85t-21.66-53.44q0-44.85,34.84-64.94,19.11-10.92,56.2-15.62ZM1708,448.86a70.1,70.1,0,0,1-12.33,6.14,104.64,104.64,0,0,1-17.08,4.35L1664.13,462q-20.36,3.57-29.23,8.7-15,8.7-15,27,0,16.29,9.18,23.54t22.31,7.25a66.43,66.43,0,0,0,38.41-12q17.57-12,18.24-44Z"/></svg>